<svg width="375" height="279" viewBox="0 0 375 279" fill="none" xmlns="http://www.w3.org/2000/svg">
<g opacity="0.2">
<mask id="mask0_1_201" style="mask-type:alpha" maskUnits="userSpaceOnUse" x="0" y="-1" width="375" height="280">
<rect y="-1" width="375" height="280" fill="url(#paint0_linear_1_201)"/>
</mask>
<g mask="url(#mask0_1_201)">
<path d="M373.521 201.112C377.141 204.733 377.141 210.603 373.521 214.223V214.223C369.9 217.844 364.03 217.844 360.41 214.223L316.565 170.379C312.945 166.759 312.945 160.889 316.565 157.268V157.268C320.186 153.648 326.056 153.648 329.676 157.268L373.521 201.112Z" fill="#F46F17"/>
<path d="M253.039 238.647C247.116 235.905 245.729 228.105 250.344 223.489V223.489C253.176 220.657 257.493 219.934 261.094 221.687L266.531 224.336C281.323 231.541 296.806 215.835 289.39 201.147L286.724 195.867C284.97 192.395 285.644 188.189 288.395 185.438V185.438C292.776 181.058 300.168 182.305 302.87 187.88L329.601 243.056C332.548 249.141 331.32 256.425 326.539 261.205V261.205C321.83 265.914 314.684 267.184 308.642 264.387L253.039 238.647Z" fill="#121212" fill-opacity="0.25"/>
<path d="M387.088 182.804C389.83 188.727 397.631 190.114 402.246 185.498V185.498C405.078 182.666 405.802 178.349 404.048 174.749L401.4 169.312C394.194 154.519 409.9 139.036 424.588 146.453L429.868 149.119C433.341 150.872 437.546 150.198 440.297 147.448V147.448C444.677 143.067 443.43 135.674 437.855 132.973L382.679 106.242C376.595 103.294 369.311 104.523 364.53 109.304V109.304C359.822 114.012 358.551 121.158 361.348 127.201L387.088 182.804Z" fill="#121212" fill-opacity="0.5"/>
<path d="M231.409 338.483C234.151 344.407 241.951 345.793 246.566 341.178V341.178C249.398 338.346 250.122 334.029 248.368 330.428L245.72 324.992C238.514 310.199 254.22 294.716 268.908 302.132L274.189 304.799C277.661 306.552 281.866 305.878 284.617 303.127V303.127C288.998 298.747 287.75 291.354 282.175 288.653L226.999 261.922C220.915 258.974 213.631 260.203 208.85 264.984V264.984C204.142 269.692 202.871 276.838 205.669 282.88L231.409 338.483Z" fill="#121212" fill-opacity="0.5"/>
<path d="M234.311 61.9031C237.932 65.5236 237.932 71.3936 234.311 75.0141V75.0141C230.691 78.6346 224.821 78.6346 221.2 75.0141L177.356 31.1698C173.736 27.5493 173.736 21.6793 177.356 18.0588V18.0588C180.977 14.4383 186.847 14.4383 190.467 18.0588L234.311 61.9031Z" fill="#F46F17"/>
<path d="M78.6317 217.583C82.2522 221.203 82.2522 227.073 78.6317 230.694V230.694C75.0112 234.314 69.1412 234.314 65.5207 230.694L21.6763 186.85C18.0558 183.229 18.0558 177.359 21.6764 173.739V173.739C25.2969 170.118 31.1669 170.118 34.7874 173.739L78.6317 217.583Z" fill="#F46F17"/>
<path d="M113.83 99.4376C107.906 96.6955 106.52 88.8952 111.135 84.2797V84.2797C113.967 81.4477 118.284 80.7242 121.885 82.4781L127.321 85.1263C142.114 92.3318 157.597 76.6259 150.18 61.9379L147.514 56.6576C145.761 53.1852 146.435 48.9797 149.186 46.2291V46.2291C153.566 41.8485 160.959 43.0957 163.66 48.671L190.391 103.847C193.339 109.931 192.11 117.215 187.329 121.996V121.996C182.621 126.704 175.475 127.975 169.433 125.177L113.83 99.4376Z" fill="#121212" fill-opacity="0.25"/>
<path d="M247.879 43.5943C250.621 49.5176 258.421 50.9042 263.037 46.2888V46.2888C265.869 43.4567 266.592 39.1399 264.839 35.5392L262.19 30.1026C254.985 15.3101 270.691 -0.172902 285.379 7.24335L290.659 9.90948C294.131 11.6627 298.337 10.9887 301.087 8.23818V8.23818C305.468 3.85755 304.221 -3.53527 298.646 -6.23634L243.47 -32.9674C237.385 -35.9152 230.101 -34.6864 225.321 -29.9056V-29.9056C220.612 -25.1973 219.342 -18.0513 222.139 -12.0087L247.879 43.5943Z" fill="#121212" fill-opacity="0.5"/>
<path d="M92.1992 199.274C94.9412 205.197 102.742 206.584 107.357 201.969V201.969C110.189 199.136 110.913 194.82 109.159 191.219L106.51 185.782C99.305 170.99 115.011 155.507 129.699 162.923L134.979 165.589C138.452 167.342 142.657 166.668 145.408 163.918V163.918C149.788 159.537 148.541 152.144 142.966 149.443L87.7901 122.712C81.7055 119.765 74.4215 120.993 69.6407 125.774V125.774C64.9324 130.482 63.6621 137.628 66.4593 143.671L92.1992 199.274Z" fill="#121212" fill-opacity="0.5"/>
<path d="M306.393 41.1364C302.773 37.5159 296.903 37.5159 293.282 41.1364V41.1364C289.662 44.7569 289.662 50.6269 293.282 54.2474L337.127 98.0917C340.747 101.712 346.617 101.712 350.238 98.0917V98.0917C353.858 94.4712 353.858 88.6012 350.238 84.9807L306.393 41.1364Z" fill="#F46F17"/>
<path d="M150.714 196.816C147.093 193.196 141.223 193.196 137.603 196.816V196.816C133.982 200.437 133.982 206.307 137.603 209.927L181.447 253.772C185.067 257.392 190.937 257.392 194.558 253.772V253.772C198.178 250.151 198.178 244.281 194.558 240.661L150.714 196.816Z" fill="#F46F17"/>
<path d="M268.859 161.618C271.601 167.542 279.401 168.928 284.017 164.313V164.313C286.849 161.481 287.572 157.164 285.818 153.563L283.17 148.127C275.965 133.334 291.671 117.851 306.359 125.267L311.639 127.934C315.111 129.687 319.317 129.013 322.067 126.262V126.262C326.448 121.882 325.201 114.489 319.625 111.788L264.45 85.0567C258.365 82.1089 251.081 83.3377 246.3 88.1185V88.1185C241.592 92.8268 240.322 99.9728 243.119 106.015L268.859 161.618Z" fill="#121212" fill-opacity="0.25"/>
<path d="M113.179 317.298C115.921 323.221 123.721 324.608 128.337 319.993V319.993C131.169 317.161 131.892 312.844 130.139 309.243L127.49 303.806C120.285 289.014 135.991 273.531 150.679 280.947L155.959 283.613C159.431 285.367 163.637 284.693 166.387 281.942V281.942C170.768 277.561 169.521 270.169 163.946 267.467L108.77 240.736C102.685 237.789 95.4014 239.017 90.6206 243.798V243.798C85.9122 248.507 84.642 255.653 87.4392 261.695L113.179 317.298Z" fill="#121212" fill-opacity="0.25"/>
<path d="M169.022 183.249C163.099 180.507 161.712 172.706 166.328 168.091V168.091C169.16 165.259 173.477 164.535 177.077 166.289L182.514 168.937C197.307 176.143 212.79 160.437 205.373 145.749L202.707 140.469C200.954 136.996 201.628 132.791 204.379 130.04V130.04C208.759 125.66 216.152 126.907 218.853 132.482L245.584 187.658C248.532 193.742 247.303 201.026 242.522 205.807V205.807C237.814 210.515 230.668 211.786 224.625 208.988L169.022 183.249Z" fill="#121212" fill-opacity="0.5"/>
<path d="M11.5042 57.6068C7.88372 53.9863 2.01373 53.9863 -1.60678 57.6068V57.6068C-5.22729 61.2273 -5.22729 67.0973 -1.60678 70.7178L42.2376 114.562C45.8581 118.183 51.7281 118.183 55.3486 114.562V114.562C58.9691 110.942 58.9691 105.072 55.3486 101.451L11.5042 57.6068Z" fill="#F46F17"/>
<path d="M129.65 22.4089C132.392 28.3323 140.192 29.7189 144.807 25.1034V25.1034C147.639 22.2714 148.363 17.9545 146.609 14.3539L143.961 8.91724C136.755 -5.87529 152.461 -21.3583 167.149 -13.942L172.43 -11.2759C175.902 -9.52264 180.107 -10.1966 182.858 -12.9472V-12.9472C187.239 -17.3278 185.991 -24.7206 180.416 -27.4217L125.24 -54.1527C119.156 -57.1005 111.872 -55.8717 107.091 -51.0909V-51.0909C102.383 -46.3826 101.112 -39.2366 103.91 -33.1941L129.65 22.4089Z" fill="#121212" fill-opacity="0.25"/>
<path d="M-26.0302 178.089C-23.2882 184.012 -15.4878 185.399 -10.8724 180.783V180.783C-8.04035 177.951 -7.31684 173.634 -9.07074 170.034L-11.7189 164.597C-18.9245 149.805 -3.21854 134.322 11.4695 141.738L16.7498 144.404C20.2221 146.157 24.4277 145.483 27.1782 142.733V142.733C31.5588 138.352 30.3117 130.959 24.7364 128.258L-30.4393 101.527C-36.5239 98.5793 -43.8079 99.8081 -48.5887 104.589V104.589C-53.297 109.297 -54.5673 116.443 -51.7701 122.486L-26.0302 178.089Z" fill="#121212" fill-opacity="0.25"/>
<path d="M29.8131 44.0393C23.8897 41.2972 22.5031 33.4969 27.1186 28.8814V28.8814C29.9506 26.0494 34.2675 25.3259 37.8681 27.0798L43.3047 29.728C58.0973 36.9335 73.5803 21.2276 66.164 6.53956L63.4979 1.25924C61.7446 -2.21309 62.4186 -6.41863 65.1692 -9.16917V-9.16917C69.5498 -13.5498 76.9426 -12.3026 79.6437 -6.72733L106.375 48.4484C109.323 54.533 108.094 61.817 103.313 66.5978V66.5978C98.6046 71.3061 91.4586 72.5764 85.4161 69.7791L29.8131 44.0393Z" fill="#121212" fill-opacity="0.5"/>
</g>
</g>
<defs>
<linearGradient id="paint0_linear_1_201" x1="375" y1="-1.00001" x2="-8.42214e-06" y2="279" gradientUnits="userSpaceOnUse">
<stop stop-color="#D9D9D9"/>
<stop offset="0.610726" stop-color="#D9D9D9" stop-opacity="0"/>
</linearGradient>
</defs>
</svg>
